# xmcd CD database file
#
# Track frame offsets:
#	150
#	26406
#	39522
#	57899
#	74550
#	83155
#	97146
#	114766
#	123466
#	143415
#	153608
#	165215
#	179470
#
# Disc length: 2567 seconds
#
# Revision: 0
# Processed by: cddbd v1.4PL0 Copyright (c) Steve Scherf et al.
# Submitted via: CDex 1.50beta10
#
DISCID=a40a050d
DTITLE=Earl Hooker - There's A Fungus Among Us
DYEAR=1999
DGENRE=Blues
TTITLE0=Two Bugs In A Rug
TTITLE1=Hold On
TTITLE2=Off The Hook
TTITLE3=Dust My Broom
TTITLE4=Hot And Heavy
TTITLE5=Bertha
TTITLE6=The Foxtrot
TTITLE7=End Of The Blues
TTITLE8=Walkin' Rag
TTITLE9=Hooker Special
TTITLE10=Something You Ate
TTITLE11=Something You've Got (Hidden)
TTITLE12=Unknown (Hidden)
EXTD=YEAR: 1999
EXTT0=
EXTT1=
EXTT2=
EXTT3=
EXTT4=
EXTT5=
EXTT6=
EXTT7=
EXTT8=
EXTT9=
EXTT10=
EXTT11=
EXTT12=
PLAYORDER=
